<svg width="72" height="78" viewBox="0 0 72 78" fill="none" xmlns="http://www.w3.org/2000/svg">
<path d="M52.3549 72.9677H71.7127L66.7434 58.0584C65.4438 54.1597 62.1275 51.2686 58.0879 50.5113L44.8065 48.0203V44.9469C47.9881 42.6509 50.2338 39.1535 50.8855 35.1201C53.8545 34.6182 56.1291 32.0454 56.1291 28.9355V20.129C56.1291 9.03039 47.0987 0 36 0C24.9014 0 15.871 9.03039 15.871 20.129V28.9355C15.871 32.0416 18.1343 34.6295 21.0983 35.1365C21.7525 39.1698 24.0107 42.671 27.1936 44.9657V48.0216L13.9109 50.5126C9.87255 51.2699 6.55503 54.1609 5.25545 58.0597L0.287354 72.9677H19.6452V70.4516H16.2245L18.3494 61.9496L15.9087 61.3407L13.6304 70.4516H3.77723L7.64326 58.8548C8.65348 55.8228 11.2338 53.5734 14.3752 52.9834L22.389 51.4813L24.4384 60.7004C23.0998 61.2816 22.1613 62.6126 22.1613 64.1613V74.2258C22.1613 76.3066 23.8547 78 25.9355 78H46.0646C48.1454 78 49.8388 76.3066 49.8388 74.2258V64.1613C49.8388 62.6126 48.9002 61.2816 47.5629 60.7004L49.6123 51.4813L57.6262 52.9834C60.7676 53.5734 63.3466 55.8228 64.3581 58.8548L68.2228 70.4516H58.3697L56.0913 61.3407L53.6507 61.9496L55.7756 70.4516H52.3549V72.9677ZM47.1377 51.017L45.4003 58.8346L44.531 55.3548H39.037L43.9686 50.4232L47.1377 51.017ZM43.1949 60.3871H28.8052L29.4342 57.871H42.5659L43.1949 60.3871ZM36 54.834L29.7097 48.5437V46.4226C31.627 47.3057 33.7544 47.8064 36 47.8064C38.2469 47.8064 40.3731 47.2995 42.2904 46.4163V48.5437L36 54.834ZM51.0968 32.4782V25.394C52.5574 25.9149 53.6129 27.2987 53.6129 28.9367C53.6129 30.5747 52.5574 31.9574 51.0968 32.4782ZM20.9033 32.4945C19.4389 31.975 18.3871 30.576 18.3871 28.9355C18.3871 27.295 19.4389 25.896 20.9033 25.3764V32.4945ZM18.3871 23.9359V20.129C18.3871 10.4168 26.2878 2.51613 36 2.51613C45.7123 2.51613 53.6129 10.4168 53.6129 20.129V23.9359C52.8682 23.3723 52.0077 22.9559 51.0566 22.7685C50.859 21.2827 49.5985 20.129 48.0598 20.129C47.261 20.129 46.4785 20.4536 45.8494 21.0826C43.7246 23.2075 41.0323 24.5625 38.1161 25.0028L38.1966 24.8417C38.4055 24.4215 38.5162 23.9523 38.5162 23.483V23.166C38.5162 21.4915 37.1537 20.129 35.4792 20.129C34.6803 20.129 33.8978 20.4536 33.3317 21.0185C30.6809 23.668 27.1646 25.1374 23.4194 25.1613V22.6452H22.1613C20.7397 22.6452 19.4414 23.1371 18.3871 23.9359ZM23.4194 32.7097V27.6774C27.8365 27.6535 31.9856 25.9224 35.1093 22.7986C35.4125 22.4942 36 22.742 36 23.166V23.483C36 23.5635 35.9812 23.6441 35.9447 23.717L33.9645 27.6774H36C40.3932 27.6774 44.5222 25.9677 47.69 22.7986C47.9944 22.4942 48.5807 22.742 48.5807 23.166V32.7097C48.5807 39.6466 42.937 45.2903 36 45.2903C29.0631 45.2903 23.4194 39.6466 23.4194 32.7097ZM28.0315 50.4232L32.9631 55.3548H27.4691L26.5998 58.8346L24.8624 51.017L28.0315 50.4232ZM25.9355 75.4839C25.2423 75.4839 24.6775 74.9203 24.6775 74.2258V64.1613C24.6775 63.4668 25.2423 62.9032 25.9355 62.9032H29.8494C28.2126 64.5035 27.1936 66.7303 27.1936 69.1936C27.1936 71.6568 28.2126 73.8836 29.8494 75.4839H25.9355ZM36 75.4839C32.5316 75.4839 29.7097 72.662 29.7097 69.1936C29.7097 65.7251 32.5316 62.9032 36 62.9032C39.4685 62.9032 42.2904 65.7251 42.2904 69.1936C42.2904 72.662 39.4685 75.4839 36 75.4839ZM47.3226 74.2258C47.3226 74.9203 46.7578 75.4839 46.0646 75.4839H42.1507C43.7875 73.8836 44.8065 71.6568 44.8065 69.1936C44.8065 66.7303 43.7875 64.5035 42.1507 62.9032H46.0646C46.7578 62.9032 47.3226 63.4668 47.3226 64.1613V74.2258Z" fill="#FFB400"/>
</svg>
